<?xml version="1.0" encoding="UTF-8"?>
<svg version="1.1" xmlns="http://www.w3.org/2000/svg" width="606" height="625">
<path d="M0 0 C3.09442327 1.37242973 4.98175813 3.42093451 7.37008286 5.81645298 C7.8839446 6.32775145 8.39780634 6.83904992 8.92723966 7.36584228 C10.64946924 9.08312545 12.36074875 10.810921 14.07229233 12.53884983 C15.30374942 13.77115301 16.53586723 15.00279623 17.76859665 16.23382664 C21.11591337 19.58028126 24.45388835 22.93591695 27.79029369 26.29324555 C31.27763835 29.79932112 34.77345847 33.29692475 38.26839828 36.79542637 C44.88645321 43.42281229 51.49682252 50.05780972 58.10448194 56.69555849 C65.62693437 64.25152206 73.15788882 71.79898713 80.68957853 79.34574139 C96.18374219 94.87127797 111.6671684 110.40748524 127.14358139 125.95071507 C130.71531177 124.2696012 133.02298213 122.3137352 135.8203392 119.50100803 C136.74099167 118.58020451 137.66164413 117.65940098 138.61019516 116.71069431 C139.60580669 115.70487041 140.60130787 114.69893727 141.59670639 113.69290257 C142.62188332 112.66399357 143.64750414 111.63552669 144.67354965 110.60748386 C147.36751303 107.90589925 150.05541507 105.19836166 152.74209213 102.48953342 C155.48686443 99.72427018 158.23733611 96.96468874 160.98733139 94.20462132 C166.37833712 88.79219232 171.76295103 83.37346068 177.14358139 77.95071507 C179.9713715 79.2412203 182.05766329 80.60473532 184.27566147 82.77639866 C184.85918884 83.34393864 185.44271622 83.91147861 186.04392624 84.49621677 C186.66075775 85.10768559 187.27758926 85.7191544 187.91311264 86.34915257 C188.55350983 86.98052128 189.19390701 87.61188999 189.85371017 88.26239109 C191.2019907 89.59619014 192.54749932 90.93279625 193.89040756 92.27200413 C195.95401321 94.32365886 198.03553495 96.35592429 200.11819077 98.38821507 C201.42597603 99.68654227 202.73265586 100.98598412 204.03811264 102.28665257 C204.66506531 102.89407291 205.29201797 103.50149326 205.93796921 104.12732029 C207.65847397 105.86624241 207.65847397 105.86624241 210.14358139 108.95071507 C209.89393073 112.45044581 208.29548606 114.17053847 205.8723259 116.58273411 C205.17257645 117.28660755 204.472827 117.990481 203.75187302 118.71568394 C202.97935699 119.47741413 202.20684097 120.23914433 201.41091537 121.02395725 C200.1963768 122.23915295 200.1963768 122.23915295 198.95730209 123.47889805 C196.27514168 126.15896591 193.58250603 128.82824718 190.88967514 131.49759007 C189.02957145 133.3520995 187.17012833 135.20727172 185.31132126 137.06308079 C180.91513573 141.44994243 176.51135894 145.82910077 172.10480696 150.20554662 C167.08808536 155.18873491 162.07988073 160.18044552 157.07237518 165.17289209 C146.77223138 175.4416791 136.46122058 185.69950759 126.14358139 195.95071507 C121.34790695 191.94959799 116.8215806 187.77098445 112.41740036 183.34478855 C111.45900298 182.3876728 111.45900298 182.3876728 110.48124403 181.41122139 C108.35858019 179.29019381 106.23949076 177.16563209 104.12038803 175.0410471 C102.59249625 173.51287301 101.06438378 171.98491954 99.53606796 170.45716953 C95.400075 166.32146288 91.26716742 162.18268542 87.1348145 158.04334211 C82.81111529 153.7133817 78.48457447 149.38626255 74.15833664 145.05883884 C65.97193244 136.86932949 57.78808021 128.67727486 49.60514587 120.48429859 C40.2867033 111.15466956 30.9654131 101.82788785 21.64388478 92.50134206 C2.47395082 73.32096218 -16.6924113 54.1370164 -35.85641861 34.95071507 C-34.89346408 33.82350481 -33.92997921 32.69674761 -32.96626854 31.57018375 C-32.42978443 30.94267263 -31.89330033 30.3151615 -31.34055912 29.66863489 C-29.82954287 27.91960591 -28.28066131 26.22601189 -26.66843033 24.56985569 C-26.12121323 24.00657566 -25.57399612 23.44329563 -25.01019669 22.86294651 C-22.56486858 20.37238666 -20.11702739 17.88445316 -17.66061783 15.40481663 C-16.36554598 14.09302783 -15.075885 12.77587679 -13.7914772 11.45364475 C-11.92657282 9.53429407 -10.0460345 7.63162908 -8.16110611 5.73196507 C-7.30160858 4.83846348 -7.30160858 4.83846348 -6.42474747 3.92691135 C-2.41264474 -0.06405185 -2.41264474 -0.06405185 0 0 Z " fill="#EC8326" transform="translate(149.85641860961914,131.04928493499756)"/>
<path d="M0 0 C4.79567444 4.00111708 9.32200079 8.17973061 13.72618103 12.60592651 C14.68457841 13.56304226 14.68457841 13.56304226 15.66233736 14.53949368 C17.7850012 16.66052125 19.90409063 18.78508297 22.02319336 20.90966797 C23.55108514 22.43784205 25.07919761 23.96579552 26.60751343 25.49354553 C30.74350639 29.62925218 34.87641397 33.76802964 39.00876689 37.90737295 C43.3324661 42.23733336 47.65900692 46.56445251 51.98524475 50.89187622 C60.17164895 59.08138558 68.35550118 67.27344021 76.53843552 75.46641648 C85.85687809 84.7960455 95.17816829 94.12282722 104.49969661 103.44937301 C123.66963057 122.62975289 142.83599269 141.81369866 162 161 C161.03704547 162.12721025 160.0735606 163.25396746 159.10984993 164.38053131 C158.57336582 165.00804244 158.03688172 165.63555356 157.48414052 166.28208017 C155.97312426 168.03110916 154.4242427 169.72470318 152.81201172 171.38085938 C152.26479462 171.9441394 151.71757751 172.50741943 151.15377808 173.08776855 C148.70844997 175.57832841 146.26060878 178.0662619 143.80419922 180.54589844 C142.50912737 181.85768723 141.21946639 183.17483828 139.93505859 184.49707031 C138.07015421 186.416421 136.1896159 188.31908599 134.3046875 190.21875 C133.73168915 190.81441772 133.1586908 191.41008545 132.56832886 192.02380371 C130.92919922 193.65429688 130.92919922 193.65429688 128 196 C123.81462961 195.88888513 121.58276642 192.95199162 118.77349854 190.13426208 C118.25963679 189.62296362 117.74577505 189.11166515 117.21634173 188.58487278 C115.49411215 186.86758962 113.78283264 185.13979406 112.07128906 183.41186523 C110.83983197 182.17956206 109.60771416 180.94791884 108.37498474 179.71688843 C105.02766802 176.3704338 101.68969304 173.01479811 98.3532877 169.65746951 C94.86594304 166.15139395 91.37012292 162.65379032 87.87518311 159.1552887 C81.25712818 152.52790277 74.64675887 145.89290534 68.03909945 139.25515658 C60.51664702 131.699193 52.98569257 124.15172793 45.45400286 116.60497367 C29.9598392 101.07943709 14.47641299 85.54322982 -1 70 C-4.57173038 71.68111386 -6.87940074 73.63697986 -9.67675781 76.44970703 C-10.59741028 77.37051056 -11.51806274 78.29131409 -12.46661377 79.24002075 C-13.4622253 80.24584465 -14.45772648 81.2517778 -15.453125 82.2578125 C-16.47830193 83.28672149 -17.50392275 84.31518837 -18.52996826 85.3432312 C-21.22393164 88.04481581 -23.91183368 90.75235341 -26.59851074 93.46118164 C-29.34328304 96.22644489 -32.09375472 98.98602633 -34.84375 101.74609375 C-40.23475573 107.15852274 -45.61936964 112.57725438 -51 118 C-53.82779011 116.70949477 -55.9140819 115.34597974 -58.13208008 113.17431641 C-58.71560745 112.60677643 -59.29913483 112.03923645 -59.90034485 111.45449829 C-60.51717636 110.84302948 -61.13400787 110.23156067 -61.76953125 109.6015625 C-62.40992844 108.97019379 -63.05032562 108.33882507 -63.71012878 107.68832397 C-65.05840931 106.35452493 -66.40391793 105.01791882 -67.74682617 103.67871094 C-69.81043182 101.62705621 -71.89195356 99.59479077 -73.97460938 97.5625 C-75.28239464 96.2641728 -76.58907447 94.96473095 -77.89453125 93.6640625 C-78.52148392 93.05664215 -79.14843658 92.4492218 -79.79438782 91.82339478 C-81.51489258 90.08447266 -81.51489258 90.08447266 -84 87 C-83.75034934 83.50026926 -82.15190467 81.78017659 -79.72874451 79.36798096 C-79.02899506 78.66410751 -78.32924561 77.96023407 -77.60829163 77.23503113 C-76.8357756 76.47330093 -76.06325958 75.71157074 -75.26733398 74.92675781 C-74.4576416 74.11662735 -73.64794922 73.30649689 -72.8137207 72.47181702 C-70.13156029 69.79174915 -67.43892464 67.12246788 -64.74609375 64.453125 C-62.88599005 62.59861556 -61.02654693 60.74344334 -59.16773987 58.88763428 C-54.77155434 54.50077264 -50.36777755 50.1216143 -45.96122557 45.74516845 C-40.94450397 40.76198015 -35.93629934 35.77026954 -30.92879379 30.77782297 C-20.62864999 20.50903597 -10.31763919 10.25120748 0 0 Z " fill="#092457" transform="translate(282,0)"/>
<path d="M0 0 C5.94 0 11.88 0 18 0 C18.33 16.17 18.66 32.34 19 49 C20.98 46.525 20.98 46.525 23 44 C29.57078804 38.55105382 38.30368612 36.40908301 46.7578125 36.78515625 C57.18923695 37.78468298 65.45570626 40.93261136 72.8125 48.6875 C82.85772573 61.12557431 84.27083867 76.61992685 83 92 C81.30642364 104.82647676 76.47187667 117.34198553 66.1171875 125.6015625 C55.92188769 132.33572732 44.01540355 133.66588979 32.125 131.46875 C26.4004731 129.68950515 22.36913914 127.05370872 19 122 C18.67 124.64 18.34 127.28 18 130 C12.06 130 6.12 130 0 130 C0 87.1 0 44.2 0 0 Z M23 61 C16.49421732 70.10357784 16.25129567 83.11625961 17.40234375 93.859375 C18.88468184 101.64891635 21.53779451 109.13658371 28.125 113.94921875 C34.47322916 117.50687217 40.98668517 117.53810833 48 116 C54.57281551 113.84795389 57.88154969 108.93450544 61 103 C65.88364466 92.93895761 65.85112763 78.2656497 62.375 67.75 C59.71888449 61.74811093 56.46112592 57.52589807 50.875 54.0625 C40.64556256 50.40263461 29.888659 52.62190121 23 61 Z " fill="#092457" transform="translate(238,436)"/>
<path d="M0 0 C-1.68340417 4.05997477 -4.51148904 7.11270923 -7.375 10.375 C-8.46493908 11.63142773 -9.5547801 12.88794053 -10.64453125 14.14453125 C-11.20221191 14.78471191 -11.75989258 15.42489258 -12.33447266 16.08447266 C-14.92543608 19.06434645 -17.49411284 22.06316974 -20.0625 25.0625 C-20.55564697 25.63742188 -21.04879395 26.21234375 -21.55688477 26.8046875 C-25.45400799 31.35122483 -29.32095319 35.92277888 -33.18310547 40.49902344 C-36.74102037 44.70872002 -40.35179159 48.86855304 -44 53 C-36.77672641 48.4314486 -29.60451568 43.79385164 -22.4765625 39.078125 C-20.52994893 37.79296722 -18.58333431 36.50781102 -16.63671875 35.22265625 C-13.61488733 33.22602739 -10.59329181 31.22904207 -7.57177734 29.23193359 C-4.62393748 27.28397364 -1.6752793 25.33725714 1.2734375 23.390625 C2.17556976 22.79372864 3.07770203 22.19683228 4.00717163 21.58184814 C7.95979971 18.97282815 11.90453049 16.38224214 16 14 C14.41227853 19.02616123 11.39763788 22.6681114 8.1875 26.75 C7.00375352 28.2759232 5.8201641 29.80196825 4.63671875 31.328125 C4.03134277 32.10478516 3.4259668 32.88144531 2.80224609 33.68164062 C0.01228481 37.27056942 -2.74306634 40.88568102 -5.5 44.5 C-6.57401861 45.90510092 -7.6482384 47.31004809 -8.72265625 48.71484375 C-9.25777832 49.41464355 -9.79290039 50.11444336 -10.34423828 50.83544922 C-12.06088351 53.07959204 -13.77840605 55.32306127 -15.49609375 57.56640625 C-16.07230469 58.31921875 -16.64851563 59.07203125 -17.2421875 59.84765625 C-18.33171705 61.27107389 -19.42153649 62.69426971 -20.51171875 64.1171875 C-24.03672706 68.72331949 -27.52767174 73.35403559 -31 78 C-24.14188995 73.82239866 -17.63323571 69.33229 -11.19213867 64.54833984 C-4.93363097 59.91408811 1.44231291 55.45555038 7.83935547 51.01513672 C13.33547684 47.1935565 18.72261561 43.27533792 24.00390625 39.16015625 C24.66261719 38.77730469 25.32132812 38.39445312 26 38 C27.485 38.495 27.485 38.495 29 39 C28.64921387 39.44577393 28.29842773 39.89154785 27.93701172 40.35083008 C19.27717493 51.37409819 10.85390286 62.54571226 2.57470703 73.85693359 C-0.91090478 78.60060808 -4.45459329 83.3009292 -8 88 C-1.92151005 84.17280262 3.62139901 79.92204179 9.14453125 75.3359375 C13.96983517 71.38856165 18.98363762 67.69911614 24 64 C24.78697266 63.41895508 25.57394531 62.83791016 26.38476562 62.23925781 C31.91911831 58.15398244 37.45787942 54.07473008 43 50 C43.66 50.33 44.32 50.66 45 51 C43.12870332 66.7524079 37.42475422 79.24236363 25.08203125 89.4375 C14.00386459 97.75132113 1.06808768 100.35220981 -12.58984375 98.68359375 C-20.90965594 97.26063666 -28.22829133 94.04276178 -35 89 C-35.92232422 88.33097656 -35.92232422 88.33097656 -36.86328125 87.6484375 C-45.97413502 80.46590035 -52.48850879 69.53429215 -54 58 C-55.29134625 43.51190451 -53.17847172 30.70887745 -44 19 C-43.53722656 18.37480469 -43.07445312 17.74960938 -42.59765625 17.10546875 C-35.02947028 7.48276138 -23.60375008 2.21379056 -11.73046875 0.3046875 C-7.7843177 -0.13565554 -3.9670979 -0.13006878 0 0 Z " fill="#0A2456" transform="translate(287,112)"/>
<path d="M0 0 C8.90971047 7.44440837 13.33805323 16.34823845 15.06640625 27.7265625 C15.06640625 33.0065625 15.06640625 38.2865625 15.06640625 43.7265625 C-5.39359375 43.7265625 -25.85359375 43.7265625 -46.93359375 43.7265625 C-45.18372701 57.60120565 -45.18372701 57.60120565 -37.08984375 68.1953125 C-30.86993323 71.88508992 -24.76424304 72.7426349 -17.7421875 71.265625 C-11.24878842 69.17098013 -8.65597995 65.3101418 -4.93359375 59.7265625 C-2.96240234 59.38598633 -2.96240234 59.38598633 -0.58203125 59.43359375 C0.26875 59.44326172 1.11953125 59.45292969 1.99609375 59.46289062 C2.88554687 59.48802734 3.775 59.51316406 4.69140625 59.5390625 C6.0371875 59.55936523 6.0371875 59.55936523 7.41015625 59.58007812 C9.62950414 59.61549325 11.84765813 59.66487789 14.06640625 59.7265625 C10.09931983 71.11443411 4.55356122 79.59212392 -6.515625 84.984375 C-16.96644366 89.07320419 -30.08891448 89.64758295 -40.734375 85.76171875 C-52.45934272 80.24286183 -59.55770789 71.84571513 -63.93359375 59.7265625 C-68.62676958 44.93816991 -66.63538918 27.24436292 -60.24609375 13.3515625 C-54.83881312 3.37400046 -47.41821307 -2.41530295 -36.71875 -6.01953125 C-24.08975539 -9.33093128 -10.64121709 -7.72868361 0 0 Z M-40.6796875 13.609375 C-45.30059661 19.79274978 -45.38091313 23.18681907 -46.93359375 31.7265625 C-32.41359375 31.7265625 -17.89359375 31.7265625 -2.93359375 31.7265625 C-4.92457157 20.77618447 -6.21069685 15.03674324 -14.93359375 8.7265625 C-23.82109853 5.76406091 -34.14517684 6.56321361 -40.6796875 13.609375 Z " fill="#092457" transform="translate(157.93359375,480.2734375)"/>
<path d="M0 0 C6.6 0 13.2 0 20 0 C20 41.91 20 83.82 20 127 C41.78 127 63.56 127 86 127 C86 132.28 86 137.56 86 143 C57.62 143 29.24 143 0 143 C0 95.81 0 48.62 0 0 Z " fill="#EB8328" transform="translate(0,423)"/>
<path d="M0 0 C7.60115008 6.71530177 9.85139683 15.07119421 11.078125 24.8359375 C11.15944128 26.99676714 11.19607238 29.15966687 11.19165039 31.32202148 C11.19153709 33.18315834 11.19153709 33.18315834 11.19142151 35.08189392 C11.18631654 36.41527345 11.18110057 37.74865256 11.17578125 39.08203125 C11.17391347 40.46208139 11.17249127 41.84213219 11.17149353 43.22218323 C11.16769668 46.83395252 11.15789094 50.44568085 11.14678955 54.05743408 C11.13651418 57.75117438 11.13198285 61.44492137 11.12695312 65.13867188 C11.11626582 72.37111448 11.09869233 79.60351501 11.078125 86.8359375 C4.808125 86.8359375 -1.461875 86.8359375 -7.921875 86.8359375 C-7.9312207 84.93908203 -7.94056641 83.04222656 -7.95019531 81.08789062 C-7.98581915 74.79730545 -8.03967802 68.50707946 -8.10577774 62.21674347 C-8.14516688 58.40554669 -8.17739686 54.59457798 -8.19287109 50.78320312 C-8.20809481 47.1000341 -8.24263955 43.41749245 -8.29018402 39.73460388 C-8.30493939 38.33456396 -8.31291264 36.93443444 -8.31375885 35.53431702 C-8.32339149 27.58288218 -8.50795067 21.58567512 -12.921875 14.8359375 C-17.20001285 10.81708073 -21.57277045 10.47567816 -27.22265625 10.56640625 C-32.44847794 11.08823215 -36.93763167 12.64843022 -40.5234375 16.6015625 C-46.17303396 24.99336075 -46.24036391 34.07385234 -46.3359375 43.8671875 C-46.35530365 45.09884644 -46.3746698 46.33050537 -46.3946228 47.5994873 C-46.45413287 51.51156816 -46.50068995 55.4236789 -46.546875 59.3359375 C-46.58402901 61.99742703 -46.6241342 64.65886196 -46.6640625 67.3203125 C-46.75981108 73.82542258 -46.84394768 80.33059051 -46.921875 86.8359375 C-52.861875 86.8359375 -58.801875 86.8359375 -64.921875 86.8359375 C-64.921875 56.8059375 -64.921875 26.7759375 -64.921875 -4.1640625 C-59.311875 -4.1640625 -53.701875 -4.1640625 -47.921875 -4.1640625 C-47.261875 -0.8640625 -46.601875 2.4359375 -45.921875 5.8359375 C-44.9525 4.7634375 -43.983125 3.6909375 -42.984375 2.5859375 C-31.62070539 -8.77773211 -12.77815856 -9.1591696 0 0 Z " fill="#092456" transform="translate(404.921875,479.1640625)"/>
<path d="M0 0 C22.44 0 44.88 0 68 0 C68 18.34928381 68 18.34928381 62.5 24.6875 C61.92048584 25.4204126 61.34097168 26.1533252 60.74389648 26.90844727 C59.50154743 28.47756557 58.24384606 30.03463377 56.97216797 31.58007812 C54.25318619 34.91636773 51.66655259 38.34655133 49.07177734 41.77978516 C47.06269879 44.43723705 45.03836595 47.08249374 43.01171875 49.7265625 C37.47950463 56.97141599 32.08952558 64.32057652 26.71240234 71.6809082 C24.16158854 75.13545345 21.57654657 78.56460458 19 82 C33.85 82.33 48.7 82.66 64 83 C64 87.95 64 92.9 64 98 C41.56 98 19.12 98 -4 98 C-4 80.80053191 -4 80.80053191 2 73.875 C2.93972656 72.6984082 2.93972656 72.6984082 3.8984375 71.49804688 C5.22871371 69.83257261 6.57280281 68.17804807 7.9296875 66.53417969 C11.40502713 62.28016726 14.68795912 57.88144466 18 53.5 C19.34074149 51.74578464 20.68188656 49.99187765 22.0234375 48.23828125 C27.53774474 41.00058431 32.92021288 33.66609324 38.28759766 26.3190918 C40.83841146 22.86454655 43.42345343 19.43539542 46 16 C30.82 15.67 15.64 15.34 0 15 C0 10.05 0 5.1 0 0 Z " fill="#092457" transform="translate(538,468)"/>
<path d="M0 0 C6.27 0 12.54 0 19 0 C19 8.58 19 17.16 19 26 C25.27 26 31.54 26 38 26 C38 30.62 38 35.24 38 40 C31.73 40 25.46 40 19 40 C19.06292933 48.1453496 19.13834766 56.29029056 19.23571491 64.43529129 C19.28042885 68.21741858 19.31968242 71.99943791 19.34643555 75.78173828 C19.37245879 79.43239116 19.41285344 83.08262878 19.46318626 86.7330246 C19.47986177 88.12520937 19.49137183 89.51746598 19.49761391 90.90973663 C19.50724659 92.86083866 19.53700366 94.81180984 19.56762695 96.76269531 C19.58428154 98.42815399 19.58428154 98.42815399 19.60127258 100.1272583 C20.04917221 103.35427475 20.66692577 104.74598524 23 107 C27.5206004 107.87495492 31.37263292 108 36 108 C36 112.62 36 117.24 36 122 C31.61729758 123.09567561 27.73817476 123.25749786 23.25 123.3125 C22.08984375 123.35600586 22.08984375 123.35600586 20.90625 123.40039062 C15.13437459 123.46333893 10.81563971 122.23881221 6 119 C-1.54614728 110.85810425 -0.27757878 97.71892084 -0.1953125 87.36328125 C-0.19157217 85.98894967 -0.18873004 84.61461538 -0.18673706 83.24028015 C-0.17918072 79.6613907 -0.15960332 76.08266928 -0.1373291 72.50384521 C-0.11669602 68.83657096 -0.1076984 65.16926897 -0.09765625 61.50195312 C-0.07634791 54.33455074 -0.04123342 47.16732053 0 40 C-4.95 40 -9.9 40 -15 40 C-15 35.38 -15 30.76 -15 26 C-10.05 26 -5.1 26 0 26 C0 17.42 0 8.84 0 0 Z " fill="#092457" transform="translate(485,444)"/>
<path d="M0 0 C6.27 0 12.54 0 19 0 C19 30.03 19 60.06 19 91 C12.73 91 6.46 91 0 91 C0 60.97 0 30.94 0 0 Z " fill="#082457" transform="translate(440,475)"/>
<path d="M0 0 C5.94 0 11.88 0 18 0 C18 30.03 18 60.06 18 91 C12.06 91 6.12 91 0 91 C0 60.97 0 30.94 0 0 Z " fill="#092556" transform="translate(198,475)"/>
<path d="M0 0 C2.4375 1.5 2.4375 1.5 4 3 C4.56847656 2.68675781 5.13695312 2.37351562 5.72265625 2.05078125 C9.36828055 0.36866644 13.00179067 -0.05711728 17 0 C19.96268265 1.19768022 21.40272356 2.06556401 23.11669922 4.74707031 C24.22563066 7.57548915 24.22628699 9.8238751 24.1953125 12.859375 C24.18886719 13.97441406 24.18242187 15.08945312 24.17578125 16.23828125 C24.15902344 17.39714844 24.14226562 18.55601562 24.125 19.75 C24.11597656 20.92433594 24.10695313 22.09867188 24.09765625 23.30859375 C24.07410063 26.20593536 24.04120652 29.10286441 24 32 C22.02 32 20.04 32 18 32 C17.97494385 31.31373535 17.9498877 30.6274707 17.92407227 29.92041016 C17.80828573 26.82174183 17.68548115 23.72339077 17.5625 20.625 C17.52318359 19.54476562 17.48386719 18.46453125 17.44335938 17.3515625 C17.40146484 16.3203125 17.35957031 15.2890625 17.31640625 14.2265625 C17.26141968 12.79691162 17.26141968 12.79691162 17.20532227 11.33837891 C17.14236535 8.97867651 17.14236535 8.97867651 16 7 C13.36 7 10.72 7 8 7 C7.13888484 10.02769315 6.81769107 12.84266637 6.68359375 15.984375 C6.64169922 16.91894531 6.59980469 17.85351562 6.55664062 18.81640625 C6.51732422 19.78449219 6.47800781 20.75257813 6.4375 21.75 C6.39431641 22.73355469 6.35113281 23.71710937 6.30664062 24.73046875 C6.20077948 27.15351275 6.09869829 29.5766554 6 32 C4.02 32 2.04 32 0 32 C-0.02505615 31.31373535 -0.0501123 30.6274707 -0.07592773 29.92041016 C-0.19171427 26.82174183 -0.31451885 23.72339077 -0.4375 20.625 C-0.47681641 19.54476562 -0.51613281 18.46453125 -0.55664062 17.3515625 C-0.59853516 16.3203125 -0.64042969 15.2890625 -0.68359375 14.2265625 C-0.72025146 13.27346191 -0.75690918 12.32036133 -0.79467773 11.33837891 C-0.85763465 8.97867651 -0.85763465 8.97867651 -2 7 C-4.91652174 6.83318891 -4.91652174 6.83318891 -8 7 C-11.09762996 10.09762996 -11.11565718 13.30246601 -11.31640625 17.546875 C-11.35830078 18.39121094 -11.40019531 19.23554687 -11.44335938 20.10546875 C-11.48267578 20.97816406 -11.52199219 21.85085938 -11.5625 22.75 C-11.62727539 24.08224609 -11.62727539 24.08224609 -11.69335938 25.44140625 C-11.79913615 27.62745963 -11.90122546 29.81362089 -12 32 C-13.98 32 -15.96 32 -18 32 C-18 21.77 -18 11.54 -18 1 C-16.02 1 -14.04 1 -12 1 C-11.67 1.66 -11.34 2.32 -11 3 C-10.484375 2.505 -9.96875 2.01 -9.4375 1.5 C-6.09971339 -0.55402253 -3.85600245 -0.41314312 0 0 Z " fill="#0A2354" transform="translate(433,593)"/>
<path d="M0 0 C4.84898772 2.67694607 6.52783054 6.2802289 8.5 11.375 C9.3929633 18.74194719 9.03960369 25.22497972 4.34375 31.23828125 C0.38422032 35.15111837 -3.29666051 36.37432598 -8.8203125 36.609375 C-13.52483149 36.27657944 -16.71783227 34.5866258 -20.5 31.75 C-24.6151134 26.31217158 -26.18190746 20.18398498 -25.25 13.4375 C-23.8925004 6.95574516 -20.76003855 3.0565935 -15.25 -0.5625 C-9.88549101 -2.35066966 -5.14615476 -2.25084152 0 0 Z M-15.25 7.4375 C-17.77967728 11.96281158 -18.63261883 16.14467062 -17.6875 21.25 C-16.63015209 24.92188091 -15.51902115 27.25815257 -12.25 29.4375 C-8.65619396 30.58445938 -6.98253748 30.753823 -3.5 29.25 C-1.08618988 27.30554185 -0.35873905 26.28572743 0.75 23.4375 C1.10335815 20.56019942 1.10335815 20.56019942 1.0625 17.5 C1.07925781 16.48035156 1.09601563 15.46070313 1.11328125 14.41015625 C0.70028131 11.03066214 -0.26096644 9.17363397 -2.25 6.4375 C-6.88183304 3.29980665 -11.07461307 3.90448029 -15.25 7.4375 Z " fill="#0B2253" transform="translate(400.25,371.5625)"/>
<path d="M0 0 C1.98 0 3.96 0 6 0 C6 14.85 6 29.7 6 45 C4.02 45 2.04 45 0 45 C-0.33 44.34 -0.66 43.68 -1 43 C-1.99 43.66 -2.98 44.32 -4 45 C-8.03539995 45.65983304 -12.16361134 45.87144309 -15.91796875 44.08984375 C-19.59023023 41.26990963 -21.15693376 38.46825105 -22 34 C-22.54409903 27.93576899 -22.48133118 23.22199678 -19 18 C-16.63254428 15.26262933 -15.45870295 14.15290098 -12 13 C-4.69565217 12.65217391 -4.69565217 12.65217391 0 15 C0 10.05 0 5.1 0 0 Z M-13.375 20.5 C-15.5769117 23.88755647 -16.19982773 27.02564839 -16 31 C-14.94731326 35.12235341 -13.62567645 37.58288237 -10 40 C-6.83875171 39.80242198 -4.73670237 39.55887766 -2.1875 37.625 C0.74042124 33.61837093 0.58080032 28.73767115 0 24 C-1.34978302 20.83178767 -1.34978302 20.83178767 -4 19 C-7.90778928 18.37196244 -10.00373651 18.37078095 -13.375 20.5 Z " fill="#082455" transform="translate(249,580)"/>
<path d="M0 0 C2.64 0 5.28 0 8 0 C12.11966344 10.14182715 16.17886941 20.30388822 20 30.5625 C20.30236572 31.36469971 20.60473145 32.16689941 20.91625977 32.9934082 C22.06793643 36.11591897 23 38.64404251 23 42 C20.69 42 18.38 42 16 42 C15.32942113 40.2097939 14.6636531 38.41778511 14 36.625 C13.62875 35.62726562 13.2575 34.62953125 12.875 33.6015625 C12 31 12 31 12 29 C6.72 29 1.44 29 -4 29 C-4.495 31.475 -4.495 31.475 -5 34 C-5.91157699 36.70639177 -6.96214971 39.33768839 -8 42 C-9.98 42 -11.96 42 -14 42 C-13.42211477 36.76036561 -12.16165978 32.11069811 -10.3125 27.16796875 C-9.91865112 26.0912365 -9.91865112 26.0912365 -9.5168457 24.99275208 C-8.68430142 22.72191951 -7.84217877 20.45477453 -7 18.1875 C-6.43429162 16.64670608 -5.86918168 15.1056923 -5.3046875 13.56445312 C-1.20867519 2.41735038 -1.20867519 2.41735038 0 0 Z M3 8 C1.35 13.28 -0.3 18.56 -2 24 C1.96 24 5.92 24 10 24 C8.40615011 18.63886855 6.8106711 13.29273092 5 8 C4.34 8 3.68 8 3 8 Z " fill="#0A2354" transform="translate(15,583)"/>
<path d="M0 0 C1.98 0 3.96 0 6 0 C6.33 4.95 6.66 9.9 7 15 C8.32 14.34 9.64 13.68 11 13 C15.99424753 12.5459775 19.06311101 12.80792784 23 16 C26.6295248 20.33526573 28.08459739 24.37427333 28 30 C27.36278418 36.05355031 25.21648837 39.67809942 21 44 C18.51594043 45.24202979 16.83102337 45.09908841 14.0625 45.0625 C13.18722656 45.05347656 12.31195313 45.04445313 11.41015625 45.03515625 C10.61480469 45.02355469 9.81945312 45.01195312 9 45 C8.01 45 7.02 45 6 45 C4.02 45 2.04 45 0 45 C0 30.15 0 15.3 0 0 Z M7 21 C5.98897962 24.03306113 5.8017465 26.25940239 5.75 29.4375 C5.72421875 30.38496094 5.6984375 31.33242188 5.671875 32.30859375 C6.05412346 35.44394124 6.81700092 36.75038357 9 39 C11.8596006 40.17110449 11.8596006 40.17110449 15 40 C17.74716387 38.22960551 19.53145922 36.93708156 21 34 C21.52447771 29.14213271 21.70864378 25.24012661 19.25 20.9375 C14.60154982 16.9346679 12.14093364 17.80119685 7 21 Z " fill="#0B2353" transform="translate(52,580)"/>
<path d="M0 0 C3.24044458 2.56535196 4.69560167 4.086805 6 8 C6.0833804 10.13794525 6.10733747 12.27842009 6.09765625 14.41796875 C6.09443359 15.67158203 6.09121094 16.92519531 6.08789062 18.21679688 C6.07951172 19.52712891 6.07113281 20.83746094 6.0625 22.1875 C6.05748317 23.52278481 6.05292059 24.85807141 6.04882812 26.19335938 C6.03702695 29.46228473 6.02056297 32.73111991 6 36 C3.69 36 1.38 36 -1 36 C-1.01981934 35.22809326 -1.03963867 34.45618652 -1.06005859 33.66088867 C-1.15521143 30.16941042 -1.26493047 26.67853848 -1.375 23.1875 C-1.4059375 21.97255859 -1.436875 20.75761719 -1.46875 19.50585938 C-1.50742188 18.34248047 -1.54609375 17.17910156 -1.5859375 15.98046875 C-1.6173584 14.90692139 -1.6487793 13.83337402 -1.68115234 12.72729492 C-1.81592307 9.7839235 -1.81592307 9.7839235 -4 7 C-7.11229042 5.8223766 -8.55401879 5.8340535 -11.6875 7 C-15.2510008 10.08194664 -15.78735198 13.91841906 -16.24975586 18.44482422 C-16.41723169 21.1090088 -16.53280756 23.76968113 -16.625 26.4375 C-16.66367188 27.35982422 -16.70234375 28.28214844 -16.7421875 29.23242188 C-16.83568676 31.48809143 -16.9214391 33.74376916 -17 36 C-19.31 36 -21.62 36 -24 36 C-24 24.12 -24 12.24 -24 0 C-21.69 0 -19.38 0 -17 0 C-16.67 0.99 -16.34 1.98 -16 3 C-15.401875 2.525625 -14.80375 2.05125 -14.1875 1.5625 C-9.63267763 -1.69094455 -5.22765746 -1.35735667 0 0 Z " fill="#0A2454" transform="translate(210,371)"/>
<path d="M0 0 C2.31 0 4.62 0 7 0 C7.01981934 0.77190674 7.03963867 1.54381348 7.06005859 2.33911133 C7.15521143 5.83058958 7.26493047 9.32146152 7.375 12.8125 C7.4059375 14.02744141 7.436875 15.24238281 7.46875 16.49414062 C7.50742187 17.65751953 7.54609375 18.82089844 7.5859375 20.01953125 C7.6173584 21.09307861 7.6487793 22.16662598 7.68115234 23.27270508 C7.81592307 26.2160765 7.81592307 26.2160765 10 29 C14.09391503 29.63553538 14.09391503 29.63553538 18 29 C20.6451484 25.37884947 21.39282546 22.70832774 21.51171875 18.26171875 C21.54716797 17.19501953 21.58261719 16.12832031 21.61914062 15.02929688 C21.64169922 13.92650391 21.66425781 12.82371094 21.6875 11.6875 C21.72166016 10.56537109 21.75582031 9.44324219 21.79101562 8.28710938 C21.87329601 5.52483938 21.94251281 2.76287887 22 0 C24.31 0 26.62 0 29 0 C29 11.88 29 23.76 29 36 C26.69 36 24.38 36 22 36 C21.67 35.34 21.34 34.68 21 34 C19.7934375 34.7734375 19.7934375 34.7734375 18.5625 35.5625 C14.03752483 37.38836717 10.65904166 37.43289126 6 36 C3.29447612 33.80176185 1.55221667 32.10443333 0 29 C-0.08559118 26.82175039 -0.10713412 24.64084745 -0.09765625 22.4609375 C-0.09443359 21.15898437 -0.09121094 19.85703125 -0.08789062 18.515625 C-0.07953466 17.13541601 -0.07106971 15.75520768 -0.0625 14.375 C-0.05748501 12.98698074 -0.0529221 11.59895978 -0.04882812 10.2109375 C-0.03700976 6.80724868 -0.02053434 3.40364561 0 0 Z " fill="#0A2355" transform="translate(317,371)"/>
<path d="M0 0 C2.20090768 1.80074265 3.14297162 3.01250834 4.0625 5.6875 C4.0625 6.6775 4.0625 7.6675 4.0625 8.6875 C0.8125 8.9375 0.8125 8.9375 -2.9375 8.6875 C-3.576875 8.0275 -4.21625 7.3675 -4.875 6.6875 C-7.30540975 4.33073903 -7.9301213 4.41468124 -11.1875 4.4375 C-12.425 4.52 -13.6625 4.6025 -14.9375 4.6875 C-15.01501564 7.1122425 -15.01501564 7.1122425 -13.9375 9.6875 C-11.44473727 10.93839179 -9.25091938 11.84248946 -6.625 12.6875 C-1.4726928 14.37388789 2.21070677 15.81232648 5.0625 20.6875 C5.63084402 24.90035002 4.78311164 28.60658253 2.4375 32.125 C-2.76889615 35.55026062 -7.76111338 36.10482997 -13.7890625 35.23046875 C-17.9440217 34.18039724 -20.9433973 32.17865406 -23.3125 28.625 C-23.9375 26.6875 -23.9375 26.6875 -23.9375 23.6875 C-20.75 23.375 -20.75 23.375 -16.9375 23.6875 C-15.25038577 25.3334651 -13.5829378 26.99987149 -11.9375 28.6875 C-8.5886991 29.22330814 -6.86668318 29.28697302 -4 27.4375 C-2.7671956 25.7504593 -2.7671956 25.7504593 -2.9453125 23.734375 C-3.83140686 21.34596343 -3.83140686 21.34596343 -6.95703125 20.34375 C-8.20871094 19.9621875 -9.46039063 19.580625 -10.75 19.1875 C-15.52322884 17.72338007 -18.78133107 16.65569298 -21.9375 12.6875 C-23.17696871 8.88646263 -23.13158217 7.19211364 -21.6875 3.4375 C-19.77600082 0.43371558 -18.21489247 -0.89922597 -14.8125 -2 C-9.61375473 -2.56508101 -4.7923558 -2.14126536 0 0 Z " fill="#0A2251" transform="translate(245.9375,372.3125)"/>
<path d="M0 0 C3.26933446 2.96521032 4.4026147 5.22593153 5.6875 9.4375 C5.6875 11.7475 5.6875 14.0575 5.6875 16.4375 C-1.2425 16.4375 -8.1725 16.4375 -15.3125 16.4375 C-14.6525 18.7475 -13.9925 21.0575 -13.3125 23.4375 C-9.32627027 24.24675916 -9.32627027 24.24675916 -5.3125 24.4375 C-3.16660577 22.54163616 -3.16660577 22.54163616 -1.3125 20.4375 C1.9375 20.1875 1.9375 20.1875 4.6875 20.4375 C4.38929167 24.01599992 3.94504642 25.19976484 1.25 27.6875 C-3.33502506 30.81873663 -6.84602076 30.94998243 -12.3125 30.4375 C-16.92747339 28.59151065 -19.22655449 25.91842 -21.3125 21.4375 C-22.18905942 15.20418857 -22.34171788 9.31817937 -19.125 3.75 C-14.33543725 -2.60486677 -6.95991175 -3.28297724 0 0 Z M-13.3125 5.4375 C-13.9725 7.4175 -14.6325 9.3975 -15.3125 11.4375 C-10.3625 11.4375 -5.4125 11.4375 -0.3125 11.4375 C-1.57809682 5.67190243 -1.57809682 5.67190243 -4.25 4.0625 C-7.85622009 2.96970603 -10.27716585 3.28339189 -13.3125 5.4375 Z " fill="#092354" transform="translate(166.3125,594.5625)"/>
<path d="M0 0 C2.6875 1.6875 2.6875 1.6875 4.6875 4.6875 C5.00634766 7.41479492 5.00634766 7.41479492 5.1015625 10.66796875 C5.14023437 11.83134766 5.17890625 12.99472656 5.21875 14.19335938 C5.2496875 15.40830078 5.280625 16.62324219 5.3125 17.875 C5.35117187 19.10154297 5.38984375 20.32808594 5.4296875 21.59179688 C5.52406103 24.62354656 5.60964549 27.65528841 5.6875 30.6875 C3.7075 30.6875 1.7275 30.6875 -0.3125 30.6875 C-0.3125 30.0275 -0.3125 29.3675 -0.3125 28.6875 C-0.951875 29.0175 -1.59125 29.3475 -2.25 29.6875 C-6.3418871 31.0236264 -10.04731019 31.33655062 -14.3125 30.6875 C-17.18279869 28.89356332 -18.80381638 27.70486724 -20.3125 24.6875 C-20.78902463 20.47819915 -20.80958162 18.4090701 -18.375 14.875 C-13.29918966 11.24942118 -7.51593349 10.28727848 -1.3125 10.6875 C-1.85958727 8.15005685 -1.85958727 8.15005685 -3.3125 5.6875 C-6.16539698 4.43420216 -6.16539698 4.43420216 -9.3125 4.6875 C-10.66682675 5.99950404 -11.99983482 7.33381404 -13.3125 8.6875 C-16.5625 8.9375 -16.5625 8.9375 -19.3125 8.6875 C-17.84545129 3.18606734 -17.84545129 3.18606734 -15.375 0.875 C-10.27671151 -2.06037822 -5.42398586 -2.14912647 0 0 Z M-13.3125 17.6875 C-14.39274658 20.08860217 -14.39274658 20.08860217 -14.3125 22.6875 C-13.35701019 24.64375978 -13.35701019 24.64375978 -11.3125 25.6875 C-7.23455575 26.11228586 -5.78173881 26.00032587 -2.3125 23.6875 C-1.73501197 21.72388136 -1.73501197 21.72388136 -1.625 19.5625 C-1.521875 18.28375 -1.41875 17.005 -1.3125 15.6875 C-7.71329188 15.17969036 -7.71329188 15.17969036 -13.3125 17.6875 Z " fill="#0A2453" transform="translate(393.3125,594.3125)"/>
<path d="M0 0 C5.10209922 2.69544864 8.17381037 5.5214311 10 11 C10.53862287 17.01807472 10.44604041 21.83093939 7 27 C4.21601664 30.21898076 2.26070831 31.77985612 -2.0859375 32.203125 C-6.93480161 32.30241915 -10.05470279 32.13303014 -14 29 C-14.556875 28.5875 -15.11375 28.175 -15.6875 27.75 C-19.41132943 22.78489409 -19.31502951 17.26553928 -18.53515625 11.3671875 C-17.44629548 6.55076685 -15.26635155 3.86342151 -11.25 1.125 C-7.31772995 -0.2361704 -4.11137112 -0.74677599 0 0 Z M-7.8125 6.125 C-10.34128222 8.29252762 -11.84651253 9.94700453 -12.3359375 13.3046875 C-12.39993243 17.51555386 -12.37901302 20.28570623 -10.375 24.0625 C-7.4118095 26.47983962 -5.83535382 27.15654505 -2 27 C0.84937236 25.03709904 2.54114445 23.45403577 3.6015625 20.09375 C4.33097101 15.68337295 4.22214852 11.98134942 2 8 C-2.67314099 5.05760774 -2.67314099 5.05760774 -7.8125 6.125 Z " fill="#0A2353" transform="translate(556,593)"/>
<path d="M0 0 C3.67615108 2.73909296 4.85787112 3.99504603 6.1875 8.375 C7.01104431 15.77660452 6.87106604 21.4256053 2.1875 27.375 C-1.58130418 30.81126263 -5.47142606 30.88709617 -10.375 30.7265625 C-14.02046018 30.20077497 -16.1035535 28.81965904 -18.8125 26.375 C-22.91804548 20.7274195 -22.5503952 15.10725737 -21.8125 8.375 C-20.57518318 4.26459159 -18.60273249 1.93175471 -15.0625 -0.5625 C-9.60295546 -2.3473511 -5.12622402 -2.58474165 0 0 Z M-13.8125 6.375 C-16.37641591 10.57374732 -16.4961971 14.58057412 -15.8125 19.375 C-13.8771263 22.9479976 -12.65781622 24.05126187 -8.875 25.5 C-5.60073734 25.67468933 -5.60073734 25.67468933 -3 23.0625 C-0.01084222 19.39010616 0.53845906 17.26425322 0.46875 12.48046875 C0.00173511 8.98434339 -1.48860996 6.95012139 -3.8125 4.375 C-8.02709903 2.53786709 -10.29787013 3.62029011 -13.8125 6.375 Z " fill="#0A2353" transform="translate(291.8125,594.625)"/>
<path d="M0 0 C4.01170768 3.61053691 4.84490081 7.13798105 5.12939453 12.38769531 C5.13052246 13.19303711 5.13165039 13.99837891 5.1328125 14.828125 C5.13474609 16.15070312 5.13474609 16.15070312 5.13671875 17.5 C5.13285156 18.4075 5.12898437 19.315 5.125 20.25 C5.13080078 21.63445313 5.13080078 21.63445313 5.13671875 23.046875 C5.13542969 23.9234375 5.13414062 24.8 5.1328125 25.703125 C5.13168457 26.50395508 5.13055664 27.30478516 5.12939453 28.12988281 C5 30 5 30 4 31 C2.00041636 31.04080783 -0.00045254 31.04254356 -2 31 C-2.02505615 30.31373535 -2.0501123 29.6274707 -2.07592773 28.92041016 C-2.19171427 25.82174183 -2.31451885 22.72339077 -2.4375 19.625 C-2.47681641 18.54476562 -2.51613281 17.46453125 -2.55664062 16.3515625 C-2.59853516 15.3203125 -2.64042969 14.2890625 -2.68359375 13.2265625 C-2.72025146 12.27346191 -2.75690918 11.32036133 -2.79467773 10.33837891 C-2.85763465 7.97867651 -2.85763465 7.97867651 -4 6 C-7.41656024 5.83322718 -7.41656024 5.83322718 -11 6 C-14.09762996 9.09762996 -14.11565718 12.30246601 -14.31640625 16.546875 C-14.35830078 17.39121094 -14.40019531 18.23554687 -14.44335938 19.10546875 C-14.48267578 19.97816406 -14.52199219 20.85085938 -14.5625 21.75 C-14.62727539 23.08224609 -14.62727539 23.08224609 -14.69335938 24.44140625 C-14.79913615 26.62745963 -14.90122546 28.81362089 -15 31 C-16.98 31 -18.96 31 -21 31 C-21 20.77 -21 10.54 -21 0 C-19.02 0 -17.04 0 -15 0 C-14.67 0.66 -14.34 1.32 -14 2 C-13.0409375 1.2265625 -13.0409375 1.2265625 -12.0625 0.4375 C-7.8319825 -1.54825311 -4.44362864 -1.36215906 0 0 Z " fill="#0A2351" transform="translate(518,594)"/>
<path d="M0 0 C3.81664975 1.69628878 5.50130435 3.13665852 7 7 C7.22705078 9.74902344 7.22705078 9.74902344 7.1953125 12.859375 C7.18886719 13.97441406 7.18242187 15.08945312 7.17578125 16.23828125 C7.15902344 17.39714844 7.14226562 18.55601562 7.125 19.75 C7.11597656 20.92433594 7.10695312 22.09867188 7.09765625 23.30859375 C7.07410063 26.20593536 7.04120652 29.10286441 7 32 C5.02 32 3.04 32 1 32 C0.505 19.625 0.505 19.625 0 7 C-7.26213521 6.57836298 -7.26213521 6.57836298 -11 8 C-11.33 15.92 -11.66 23.84 -12 32 C-13.98 32 -15.96 32 -18 32 C-18 21.77 -18 11.54 -18 1 C-15 1 -12 1 -9 1 C-5.93570224 -0.53214888 -3.3834358 -0.22938548 0 0 Z " fill="#092355" transform="translate(205,593)"/>
<path d="M0 0 C2.31 0 4.62 0 7 0 C7 3.3 7 6.6 7 10 C9.64 10 12.28 10 15 10 C15 11.98 15 13.96 15 16 C12.36 16 9.72 16 7 16 C7.33 23.59 7.66 31.18 8 39 C9.98 39.33 11.96 39.66 14 40 C14 41.98 14 43.96 14 46 C12.41820385 46.10867302 10.83422847 46.18589827 9.25 46.25 C8.36828125 46.29640625 7.4865625 46.3428125 6.578125 46.390625 C3.12030397 45.86671272 2.15184202 44.72025313 0 42 C-0.45410156 39.15917969 -0.45410156 39.15917969 -0.390625 35.921875 C-0.37773437 34.76171875 -0.36484375 33.6015625 -0.3515625 32.40625 C-0.31804687 31.1996875 -0.28453125 29.993125 -0.25 28.75 C-0.23195313 27.52796875 -0.21390625 26.3059375 -0.1953125 25.046875 C-0.148181 22.03045922 -0.08239413 19.01562509 0 16 C-1.98 16 -3.96 16 -6 16 C-6 14.02 -6 12.04 -6 10 C-4.02 10 -2.04 10 0 10 C0 6.7 0 3.4 0 0 Z " fill="#092455" transform="translate(259,361)"/>
<path d="M0 0 C2.31 0 4.62 0 7 0 C7 3.3 7 6.6 7 10 C9.64 10 12.28 10 15 10 C15 11.98 15 13.96 15 16 C12.36 16 9.72 16 7 16 C7.33 23.92 7.66 31.84 8 40 C9.98 40 11.96 40 14 40 C14 41.98 14 43.96 14 46 C12.39667209 46.08121924 10.79215974 46.13929134 9.1875 46.1875 C7.84751953 46.23970703 7.84751953 46.23970703 6.48046875 46.29296875 C4 46 4 46 2.23828125 44.80078125 C-0.23800915 41.19961446 -0.12248785 36.94542219 -0.09765625 32.69921875 C-0.09443359 31.72275391 -0.09121094 30.74628906 -0.08789062 29.74023438 C-0.07951172 28.73283203 -0.07113281 27.72542969 -0.0625 26.6875 C-0.05798828 25.66076172 -0.05347656 24.63402344 -0.04882812 23.57617188 C-0.03708184 21.05072118 -0.02065565 18.52539095 0 16 C-1.98 16 -3.96 16 -6 16 C-6 14.02 -6 12.04 -6 10 C-4.02 10 -2.04 10 0 10 C0 6.7 0 3.4 0 0 Z " fill="#082557" transform="translate(297,361)"/>
<path d="M0 0 C2.31 0 4.62 0 7 0 C7 3.3 7 6.6 7 10 C9.31 10 11.62 10 14 10 C14 11.98 14 13.96 14 16 C11.69 16 9.38 16 7 16 C7.33 23.59 7.66 31.18 8 39 C9.98 39.33 11.96 39.66 14 40 C14 41.98 14 43.96 14 46 C12.23050905 46.10815225 10.45912513 46.18566083 8.6875 46.25 C7.70136719 46.29640625 6.71523438 46.3428125 5.69921875 46.390625 C3 46 3 46 1.34960938 44.35546875 C-0.36994081 41.35434354 -0.343655 39.36853967 -0.29296875 35.921875 C-0.28330078 34.76171875 -0.27363281 33.6015625 -0.26367188 32.40625 C-0.23853516 31.1996875 -0.21339844 29.993125 -0.1875 28.75 C-0.17396484 27.52796875 -0.16042969 26.3059375 -0.14648438 25.046875 C-0.1111398 22.03080502 -0.0617956 19.01562513 0 16 C-1.98 16 -3.96 16 -6 16 C-6 14.02 -6 12.04 -6 10 C-4.02 10 -2.04 10 0 10 C0 6.7 0 3.4 0 0 Z " fill="#0A2456" transform="translate(358,361)"/>
<path d="M0 0 C3.04567865 2.07997566 3.7857572 3.21444308 4.75 6.75 C4.87375 7.86375 4.87375 7.86375 5 9 C2.25 9.25 2.25 9.25 -1 9 C-2.35368596 7.68733482 -3.68799596 6.35432675 -5 5 C-7.66834966 4.66501699 -7.66834966 4.66501699 -10 5 C-10.33 6.32 -10.66 7.64 -11 9 C-10.09636719 9.32613281 -9.19273437 9.65226563 -8.26171875 9.98828125 C-6.49248047 10.64376953 -6.49248047 10.64376953 -4.6875 11.3125 C-3.51574219 11.74175781 -2.34398437 12.17101562 -1.13671875 12.61328125 C3.34056761 14.59265442 3.34056761 14.59265442 5 17 C5.62262378 20.04580823 5.51472236 22.9393391 5 26 C3.12379387 28.50160818 1.76108697 29.61945652 -1 31 C-5.92640344 31.41251687 -10.47717008 31.6526414 -15.0625 29.6875 C-17 28 -17 28 -19 25 C-19 23.68 -19 22.36 -19 21 C-16.1875 20.75 -16.1875 20.75 -13 21 C-12.525625 21.66 -12.05125 22.32 -11.5625 23 C-10.7890625 23.99 -10.7890625 23.99 -10 25 C-6.37436186 25.33380814 -6.37436186 25.33380814 -3 25 C-2.67 23.35 -2.34 21.7 -2 20 C-2.90363281 19.68546875 -3.80726563 19.3709375 -4.73828125 19.046875 C-5.91777344 18.61890625 -7.09726562 18.1909375 -8.3125 17.75 C-9.48425781 17.33234375 -10.65601563 16.9146875 -11.86328125 16.484375 C-15.06507707 14.96920388 -16.33012478 14.07022673 -18 11 C-18.5 7.5 -18.5 7.5 -18 4 C-12.58166021 -1.56478141 -7.2206812 -1.52699652 0 0 Z " fill="#092352" transform="translate(598,594)"/>
<path d="M0 0 C4.12406827 1.40062696 5.58841709 2.32774792 7.875 6.0625 C9 9 9 9 9 11 C6.69 11 4.38 11 2 11 C1.7525 10.360625 1.505 9.72125 1.25 9.0625 C0.1905037 6.90088496 0.1905037 6.90088496 -1.75 6.125 C-4.82030146 5.9544277 -7.15840374 6.90211053 -10 8 C-10.99077704 13.90449562 -11.28803119 18.39432359 -9 24 C-6.18401813 26.30260759 -6.18401813 26.30260759 -3 25.875 C0.10170469 25.30220384 0.10170469 25.30220384 1.5 22.9375 C2.2425 21.9784375 2.2425 21.9784375 3 21 C6.1875 20.75 6.1875 20.75 9 21 C7.98499517 25.36452075 6.54875978 28.32336576 2.90625 31.08203125 C-0.95496442 32.94142754 -4.85491653 32.71443715 -9 32 C-13.13041615 30.12253811 -14.61157654 28.67326733 -16.875 24.75 C-18.83375701 18.22080997 -18.56253324 12.99174725 -15.9921875 6.76171875 C-12.44062499 0.45559791 -6.6625572 -0.66997782 0 0 Z " fill="#0B2251" transform="translate(352,593)"/>
<path d="M0 0 C6.27 0 12.54 0 19 0 C19 6.93 19 13.86 19 21 C12.73 21 6.46 21 0 21 C0 14.07 0 7.14 0 0 Z " fill="#0A2457" transform="translate(440,436)"/>
<path d="M0 0 C2.64 0 5.28 0 8 0 C8 16.17 8 32.34 8 49 C5.36 49 2.72 49 0 49 C0 32.83 0 16.66 0 0 Z " fill="#072256" transform="translate(169,358)"/>
<path d="M0 0 C5.94 0 11.88 0 18 0 C18 6.93 18 13.86 18 21 C12.06 21 6.12 21 0 21 C0 14.07 0 7.14 0 0 Z " fill="#0A2556" transform="translate(198,436)"/>
<path d="M0 0 C0 1.98 0 3.96 0 6 C-1.11375 6.433125 -2.2275 6.86625 -3.375 7.3125 C-7.17512334 8.69911119 -7.17512334 8.69911119 -9 12 C-9.34836951 14.1074908 -9.34836951 14.1074908 -9.37890625 16.4140625 C-9.41306641 17.25710938 -9.44722656 18.10015625 -9.48242188 18.96875 C-9.50884766 19.8453125 -9.53527344 20.721875 -9.5625 21.625 C-9.62218635 23.36733336 -9.68577496 25.10953893 -9.75390625 26.8515625 C-9.77783447 27.62322754 -9.8017627 28.39489258 -9.82641602 29.18994141 C-10 31 -10 31 -11 32 C-12.98 32 -14.96 32 -17 32 C-17 21.77 -17 11.54 -17 1 C-15.02 1 -13.04 1 -11 1 C-11 1.99 -11 2.98 -11 4 C-9.9275 3.34 -8.855 2.68 -7.75 2 C-4.69019314 0.11704193 -3.8664136 0 0 0 Z " fill="#0A2354" transform="translate(111,593)"/>
<path d="M0 0 C2.31 0 4.62 0 7 0 C7 11.88 7 23.76 7 36 C4.69 36 2.38 36 0 36 C0 24.12 0 12.24 0 0 Z " fill="#082458" transform="translate(279,371)"/>
<path d="M0 0 C1.98 0 3.96 0 6 0 C6 10.23 6 20.46 6 31 C4.02 31 2.04 31 0 31 C0 20.77 0 10.54 0 0 Z " fill="#0D2448" transform="translate(474,594)"/>
<path d="M0 0 C1.98 0 3.96 0 6 0 C6 10.23 6 20.46 6 31 C4.02 31 2.04 31 0 31 C0 20.77 0 10.54 0 0 Z " fill="#0A2354" transform="translate(124,594)"/>
<path d="M0 0 C1.32 0 2.64 0 4 0 C4 5.61 4 11.22 4 17 C2.68 17 1.36 17 0 17 C0 11.39 0 5.78 0 0 Z " fill="#082357" transform="translate(475,608)"/>
<path d="M0 0 C2.31 0 4.62 0 7 0 C7 2.97 7 5.94 7 9 C4.69 9 2.38 9 0 9 C0 6.03 0 3.06 0 0 Z " fill="#08235A" transform="translate(279,355)"/>
<path d="M0 0 C0.33 0 0.66 0 1 0 C1 11.88 1 23.76 1 36 C-1.31 36 -3.62 36 -6 36 C-5.67 35.01 -5.34 34.02 -5 33 C-5 33.66 -5 34.32 -5 35 C-3.35 34.34 -1.7 33.68 0 33 C0 22.11 0 11.22 0 0 Z " fill="#0F234A" transform="translate(285,371)"/>
<path d="M0 0 C1.98 0 3.96 0 6 0 C6 2.64 6 5.28 6 8 C4.02 8 2.04 8 0 8 C0 5.36 0 2.72 0 0 Z " fill="#102248" transform="translate(474,580)"/>
<path d="M0 0 C1.98 0 3.96 0 6 0 C6 2.64 6 5.28 6 8 C4.02 8 2.04 8 0 8 C0 5.36 0 2.72 0 0 Z " fill="#112249" transform="translate(124,580)"/>
<path d="M0 0 C0.33 0 0.66 0 1 0 C1 11.88 1 23.76 1 36 C0.01 36 -0.98 36 -2 36 C-1.84152588 35.49243164 -1.68305176 34.98486328 -1.51977539 34.46191406 C-0.82830633 31.18677364 -0.7656084 27.94303931 -0.68359375 24.609375 C-0.66281265 23.90476135 -0.64203156 23.20014771 -0.62062073 22.47418213 C-0.55546163 20.23288319 -0.49639752 17.99147136 -0.4375 15.75 C-0.39428274 14.22655103 -0.35066743 12.70311329 -0.30664062 11.1796875 C-0.19981509 7.45324409 -0.09845361 3.72667506 0 0 Z " fill="#132148" transform="translate(345,371)"/>
<path d="M0 0 C0 0.99 0 1.98 0 3 C-0.99 3.495 -0.99 3.495 -2 4 C-1.34 4.66 -0.68 5.32 0 6 C-1.98 6.33 -3.96 6.66 -6 7 C-6 6.34 -6 5.68 -6 5 C-5.34 5 -4.68 5 -4 5 C-4 4.01 -4 3.02 -4 2 C-5.65 2.33 -7.3 2.66 -9 3 C-7.14340032 -0.71319936 -3.69365381 -0.09982848 0 0 Z " fill="#0C1F4B" transform="translate(242,593)"/>
<path d="M0 0 C1.32 0 2.64 0 4 0 C4 1.98 4 3.96 4 6 C2.68 6 1.36 6 0 6 C0 4.02 0 2.04 0 0 Z " fill="#042655" transform="translate(475,581)"/>
<path d="M0 0 C0.99 0 1.98 0 3 0 C5.95047835 4.61012242 7.5497272 7.36529617 7 13 C6.67 13 6.34 13 6 13 C5.62875 11.3603125 5.62875 11.3603125 5.25 9.6875 C3.93240001 5.80058004 3.24358975 5.16239317 0 3 C0 2.01 0 1.02 0 0 Z " fill="#061E49" transform="translate(243,596)"/>
<path d="M0 0 C1.32 0 2.64 0 4 0 C4 1.98 4 3.96 4 6 C2.68 5.67 1.36 5.34 0 5 C0 3.35 0 1.7 0 0 Z " fill="#092358" transform="translate(125,581)"/>
<path d="M0 0 C2.64 0 5.28 0 8 0 C7.67 0.99 7.34 1.98 7 3 C4.69 3 2.38 3 0 3 C0 2.01 0 1.02 0 0 Z " fill="#091A3B" transform="translate(112,512)"/>
<path d="M0 0 C1.98 0 3.96 0 6 0 C5.34 1.32 4.68 2.64 4 4 C2.35 3.67 0.7 3.34 -1 3 C-0.67 2.01 -0.34 1.02 0 0 Z " fill="#0D1B46" transform="translate(355,614)"/>
<path d="M0 0 C0.99 0 1.98 0 3 0 C3 2.97 3 5.94 3 9 C0.69 9 -1.62 9 -4 9 C-3.67 8.01 -3.34 7.02 -3 6 C-3 6.66 -3 7.32 -3 8 C-1.35 8 0.3 8 2 8 C1.34 5.36 0.68 2.72 0 0 Z " fill="#0D2448" transform="translate(283,355)"/>
<path d="M0 0 C1.2065625 0.0309375 1.2065625 0.0309375 2.4375 0.0625 C0.79580472 2.08304804 -0.87161778 4.08293058 -2.5625 6.0625 C-2.8925 6.0625 -3.2225 6.0625 -3.5625 6.0625 C-3.605221 4.39638095 -3.60313832 2.72867115 -3.5625 1.0625 C-2.5625 0.0625 -2.5625 0.0625 0 0 Z " fill="#DB802E" transform="translate(301.5625,297.9375)"/>
<path d="M0 0 C2.97 0 5.94 0 9 0 C8.67 0.99 8.34 1.98 8 3 C7.4225 2.814375 6.845 2.62875 6.25 2.4375 C3.79307475 1.95976454 2.35602466 2.24270636 0 3 C0 2.01 0 1.02 0 0 Z " fill="#132346" transform="translate(278,112)"/>
<path d="M0 0 C0.99 0 1.98 0 3 0 C3 1.98 3 3.96 3 6 C2.01 5.67 1.02 5.34 0 5 C0 3.35 0 1.7 0 0 Z " fill="#0A1B3B" transform="translate(317,528)"/>
<path d="M0 0 C1.65 1.65 3.3 3.3 5 5 C4.01 5.99 3.02 6.98 2 8 C0.74335022 5.09399739 0 3.20395416 0 0 Z " fill="#101F45" transform="translate(223,379)"/>
<path d="M0 0 C0.99 0.33 1.98 0.66 3 1 C2.67 2.32 2.34 3.64 2 5 C1.01 5 0.02 5 -1 5 C-0.67 3.35 -0.34 1.7 0 0 Z " fill="#D8873E" transform="translate(327,209)"/>
<path d="M0 0 C0.99 0.33 1.98 0.66 3 1 C1.35 2.65 -0.3 4.3 -2 6 C-2 5.34 -2 4.68 -2 4 C-2.66 3.67 -3.32 3.34 -4 3 C-2.1875 1.4375 -2.1875 1.4375 0 0 Z " fill="#0E1C42" transform="translate(313,150)"/>
</svg>
